<?xml version="1.0" encoding="utf-8"?>
<!-- Generator: Adobe Illustrator 24.1.1, SVG Export Plug-In . SVG Version: 6.00 Build 0)  -->
<svg version="1.1" xmlns="http://www.w3.org/2000/svg" xmlns:xlink="http://www.w3.org/1999/xlink" x="0px" y="0px"
	 viewBox="0 0 586.27 149.09" style="enable-background:new 0 0 586.27 149.09;" xml:space="preserve">
<style type="text/css">
	.st0{fill:#FFFFFF;}
</style>
<g id="Layer_2_xA0_Image_1_">
</g>
<g id="Meow_xA0_Image_1_">
	<g>
		<path d="M0,13.69c0-0.24,0-0.48,0-0.72c0.4-0.04,0.24-0.36,0.23-0.55c-0.05-1.78,0.22-3.5,0.69-5.22c0.3-1.1,0.72-2.1,1.31-3.06
			c0.6-0.99,1.28-1.87,2.28-2.52c1.52-0.98,3.16-1.57,4.97-1.59c1.04-0.01,2.08,0,3.11,0c0.24,0,0.52-0.08,0.71,0.02
			c0.58,0.32,1.24,0.27,1.85,0.44c0.86,0.25,1.75,0.4,2.61,0.65c1.21,0.34,2.38,0.8,3.55,1.25c1.31,0.51,2.62,1.02,3.88,1.63
			c2.09,1.03,4.15,2.13,6.23,3.18c1.78,0.9,3.59,1.75,5.37,2.66c1.81,0.92,3.58,1.92,5.49,2.65c0.92,0.35,1.77,0.9,2.71,1.27
			c1.55,0.6,3.04,1.35,4.54,2.06c1.23,0.59,2.52,1.06,3.77,1.6c1.55,0.67,3.14,1.3,4.73,1.87c0.7,0.25,1.36,0.59,2.04,0.86
			c1.54,0.62,3.15,1.11,4.53,2.13c5.17,0,10.36,0,15.36,0c1.21-0.61,2.23-1.28,3.34-1.64c1.31-0.42,2.51-1.08,3.81-1.51
			c0.94-0.31,1.82-0.8,2.76-1.15c1.7-0.63,3.35-1.36,5.02-2.06c0.92-0.38,1.81-0.88,2.73-1.23c2.15-0.8,4.22-1.79,6.27-2.8
			c3.65-1.79,7.32-3.56,10.9-5.52c2.46-1.35,4.97-2.6,7.61-3.6c1.8-0.68,3.58-1.38,5.45-1.88c1.27-0.34,2.58-0.45,3.82-0.89
			c1.76,0.13,3.53-0.19,5.3,0.22c1.66,0.38,3.18,1.04,4.32,2.27c1.23,1.32,2.11,2.86,2.53,4.7c0.39,1.7,0.73,3.36,0.68,5.1
			c-0.01,0.27-0.07,0.54,0.2,0.76c0.08,0.07,0.1,0.36,0.03,0.44c-0.38,0.41-0.25,0.91-0.21,1.35c0.13,1.42-0.28,2.8-0.26,4.22
			c0,0.08,0.03,0.2-0.01,0.23c-0.42,0.35-0.08,0.85-0.25,1.22c-0.21,0.45-0.21,0.89-0.22,1.35c-0.01,0.26-0.13,0.54-0.16,0.76
			c-0.12,0.9-0.5,1.74-0.59,2.65c-0.05,0.48-0.06,1.05-0.25,1.44c-0.34,0.69-0.48,1.43-0.63,2.13c-0.15,0.74-0.66,1.39-0.52,2.19
			c-0.68,1.44-1.02,3.01-1.58,4.5c-0.18,0.48-0.48,0.94-0.55,1.44c-0.09,0.59-0.02,1.19-0.02,1.79c0,12.18,0.01,24.36-0.01,36.54
			c0,1.56,0.05,3.12-0.17,4.7c-0.25,1.73,0.02,3.53-0.28,5.29c-0.16,0.95-0.03,1.97-0.29,2.88c-0.32,1.13-0.43,2.3-0.63,3.44
			c-0.23,1.3-0.59,2.58-0.81,3.88c-0.13,0.74-0.41,1.5-0.67,2.23c-0.27,0.73-0.51,1.47-0.72,2.22c-0.74,2.68-1.9,5.2-3.06,7.72
			c-0.78,1.69-1.71,3.29-2.67,4.89c-0.69,1.15-1.41,2.28-2.09,3.44c-0.7,1.17-1.67,2.15-2.37,3.33c-0.34,0.57-0.88,1.02-1.43,1.64
			c-4.31-4.31-8.55-8.55-12.71-12.71c-0.11,0.05-0.25,0.1-0.49,0.2c4.33,4.33,8.56,8.56,12.82,12.82c-0.11,0.21-0.2,0.51-0.39,0.73
			c-0.69,0.8-1.39,1.59-2.11,2.36c-0.71,0.75-1.46,1.48-2.2,2.2c-0.19,0.18-0.4,0.34-0.58,0.49c-3.9-3.9-7.73-7.73-11.5-11.5
			c-0.28,0-0.47,0-0.77,0c4.01,4.01,7.94,7.94,11.97,11.97c-2.29,2.02-4.48,4.02-6.97,5.83c-0.3-0.33-0.54-0.64-0.82-0.92
			c-3.13-3.14-6.26-6.27-9.4-9.4c-0.17-0.17-0.31-0.53-0.69-0.22c3.54,3.54,7.08,7.08,10.71,10.71c-1,0.75-1.88,1.47-2.83,2.1
			c-1.4,0.94-2.81,1.87-4.24,2.77c-1.77,1.11-3.57,2.19-5.41,3.15c-2.94,1.54-5.9,3.06-9.01,4.27c-0.65,0.25-1.27,0.6-1.93,0.83
			c-1.74,0.62-3.51,1.18-5.25,1.8c-1.05,0.37-2.08,0.64-3.22,0.63c-4.47-0.05-8.94-0.03-13.42-0.01c-1.09,0.01-2.14-0.05-3.16-0.48
			c-1.46-0.62-3.03-0.95-4.49-1.59c-0.84-0.37-1.7-0.72-2.57-1.03c-1.29-0.46-2.56-0.97-3.78-1.57c-2.53-1.24-5.08-2.43-7.5-3.87
			c-1.09-0.64-2.21-1.22-3.29-1.87c-1.35-0.82-2.64-1.72-3.97-2.55c-0.81-0.51-1.53-1.17-2.27-1.74c3.8-3.85,7.52-7.63,11.24-11.4
			c0.02-0.02,0-0.08,0-0.15c-0.09-0.04-0.18-0.09-0.32-0.15c-3.76,3.76-7.51,7.51-11.26,11.26c-0.02,0.02-0.07,0.04-0.1,0.04
			c-0.04,0.01-0.08,0-0.12,0c-2.37-1.69-4.57-3.58-6.8-5.63c4.24-4.24,8.41-8.41,12.62-12.62c-0.02-0.1-0.05-0.26-0.09-0.48
			c-4.28,4.28-8.48,8.48-12.69,12.69c-0.02,0.02-0.06,0.04-0.1,0.05c-0.04,0.01-0.08,0-0.34,0c-0.07-0.1-0.21-0.35-0.4-0.54
			c-1.5-1.52-3.06-2.98-4.4-4.65c-0.16-0.2-0.33-0.4-0.51-0.61c4.35-4.35,8.64-8.64,12.93-12.93c0.23-0.23,0.47-0.44,0.67-0.69
			c0.08-0.11,0.06-0.29,0.09-0.44c-0.07-0.04-0.14-0.08-0.2-0.13c-4.57,4.57-9.13,9.13-13.73,13.73c-0.92-0.56-1.55-1.56-2.19-2.44
			c-0.78-1.07-1.62-2.1-2.33-3.22c-0.4-0.63-0.78-1.27-1.19-1.9c-0.93-1.44-1.79-2.92-2.59-4.44c-0.47-0.88-1.06-1.73-1.35-2.67
			c-0.29-0.97-0.82-1.82-1.18-2.75c-0.42-1.1-0.92-2.19-1.26-3.31c-0.35-1.17-0.99-2.27-1.01-3.54c-0.56-0.87-0.61-1.91-0.88-2.87
			c-0.27-0.97-0.44-1.99-0.61-3c-0.09-0.53,0.01-1.17-0.24-1.56c-0.38-0.61,0.1-1.35-0.44-1.86c0.07-0.66-0.15-1.29-0.22-1.94
			c-0.09-0.76-0.07-1.53-0.22-2.3c-0.17-0.89-0.11-1.84-0.02-2.75c0.09-0.95-0.27-1.84-0.27-2.78c0.02-13.5,0.01-27,0.01-40.49
			c0-0.24,0.02-0.48-0.01-0.72c-0.02-0.18-0.08-0.37-0.15-0.53C4.33,34.82,3.85,32.87,3.15,31c-0.2-0.54-0.35-1.14-0.48-1.71
			c-0.13-0.59-0.29-1.16-0.43-1.74c-0.15-0.59-0.41-1.15-0.34-1.78c-0.52-0.35,0.07-1.03-0.42-1.38c-0.05-0.76-0.33-1.46-0.51-2.18
			c-0.12-0.48,0.09-0.96-0.2-1.48c-0.23-0.42-0.13-1.03-0.24-1.56C0.3,18.1,0.3,17,0.25,15.91c-0.03-0.64,0-1.28-0.02-1.92
			C0.23,13.89,0.08,13.79,0,13.69z M61.58,62.68c0-0.84,0-1.68,0-2.51c0-0.2,0.08-0.49-0.02-0.58c-0.34-0.3-0.17-0.66-0.23-1
			c-0.07-0.37-0.19-0.73-0.23-1.1c-0.08-0.83-0.39-1.6-0.65-2.37c-0.47-1.4-1.11-2.73-1.83-4.03c-0.92-1.65-3.29-4.43-4.82-5.52
			c-0.37-0.26-0.75-0.5-1.13-0.74c-0.94-0.59-1.92-1.09-2.97-1.49c-1.05-0.41-2.14-0.8-3.22-0.85c-1.63-0.08-3.28-0.2-4.93,0.15
			c-1.03,0.22-2.02,0.53-2.98,0.91c-1.95,0.78-3.63,2.02-5.14,3.46c-0.68,0.64-1.34,1.33-1.85,2.11c-0.65,1-1.36,1.96-1.91,3.03
			c-0.8,1.56-1.39,3.19-1.84,4.86c-0.36,1.33-0.65,2.69-0.52,4.11c0.07,0.71,0.02,1.44,0.01,2.15c-0.03,1.63-0.02,3.25,0.48,4.83
			c0.22,0.71,0.34,1.46,0.63,2.14c0.45,1.05,0.84,2.12,1.4,3.14c0.86,1.54,1.8,3,3.07,4.23c0.49,0.47,0.94,0.98,1.44,1.43
			c0.48,0.44,0.95,0.95,1.52,1.24c1.74,0.9,3.38,2.07,5.44,2.18c0.43,0.42,1.04,0.04,1.44,0.27c0.54,0.32,1.07,0.14,1.6,0.2
			c0.35,0.04,0.72,0.04,1.08,0c0.37-0.04,0.73-0.23,1.1-0.22c0.97,0.03,1.87-0.34,2.77-0.57c1.52-0.39,4.24-2.05,5.28-3.1
			c0.91-0.92,1.87-1.78,2.66-2.83c1.27-1.69,2.31-3.48,3.02-5.46c0.8-2.22,1.4-4.48,1.35-6.86C61.57,63.48,61.58,63.08,61.58,62.68z
			 M119.32,62.67c0-1,0.03-2-0.01-2.99c-0.03-0.68-0.02-1.42-0.28-2.03c-0.53-1.26-0.57-2.7-1.39-3.86
			c-0.7-2.43-2.52-4.64-3.59-5.93c-0.92-1.11-2.1-1.95-3.25-2.81c-0.9-0.67-1.9-1.2-2.92-1.62c-1.12-0.47-2.33-0.9-3.54-0.95
			c-1.71-0.07-3.45-0.25-5.17,0.19c-1.15,0.3-2.28,0.65-3.36,1.13c-1.75,0.78-3.2,2-4.64,3.23c-0.43,0.37-0.73,0.89-1.11,1.33
			c-1.43,1.65-2,2.56-2.96,4.64c-0.71,1.56-1.42,3.12-1.55,4.86c-0.43,0.43-0.04,1.04-0.27,1.44c-0.32,0.54-0.18,1.07-0.2,1.6
			c-0.03,1.4,0,2.79-0.02,4.19c-0.01,0.74,0.4,1.42,0.25,2.17c0.58,1.32,0.79,2.76,1.38,4.1c1.12,2.52,2.24,4.57,3.86,6.18
			c0.75,0.74,1.47,1.51,2.34,2.13c1.23,0.86,2.43,1.72,3.88,2.2c1.8,0.6,3.62,1.1,5.54,1.08c0.62,0,1.21-0.1,1.82-0.21
			c1.22-0.21,2.47-0.26,3.55-0.98c1.05-0.1,1.83-0.81,2.7-1.28c0.91-0.5,1.72-1.16,2.44-1.93c0.98-1.05,2.01-2.03,2.84-3.24
			c0.61-0.9,1-1.94,1.73-2.77c-0.01-0.64,0.44-1.1,0.67-1.64c0.25-0.58,0.35-1.21,0.52-1.82c0.4-1.42,0.83-2.85,0.75-4.36
			C119.29,64.03,119.32,63.35,119.32,62.67z"/>
		<path class="st0" d="M61.58,62.68c0,0.4-0.01,0.8,0,1.2c0.05,2.39-0.55,4.65-1.35,6.86c-0.71,1.98-1.74,3.77-3.02,5.46
			c-0.79,1.05-1.75,1.92-2.66,2.83c-1.04,1.05-3.76,2.72-5.28,3.1c-0.9,0.23-1.8,0.6-2.77,0.57c-0.36-0.01-0.73,0.17-1.1,0.22
			c-0.35,0.04-0.72,0.04-1.08,0c-0.53-0.06-1.05,0.12-1.6-0.2c-0.39-0.23-1.01,0.15-1.44-0.27c-2.06-0.1-3.7-1.28-5.44-2.18
			c-0.57-0.29-1.04-0.8-1.52-1.24c-0.5-0.46-0.96-0.96-1.44-1.43c-1.27-1.23-2.21-2.69-3.07-4.23c-0.56-1.01-0.95-2.08-1.4-3.14
			c-0.29-0.68-0.4-1.43-0.63-2.14c-0.5-1.58-0.51-3.2-0.48-4.83c0.02-0.72,0.06-1.44-0.01-2.15c-0.13-1.41,0.15-2.78,0.52-4.11
			c0.45-1.67,1.04-3.3,1.84-4.86c0.55-1.07,1.26-2.03,1.91-3.03c0.51-0.78,1.17-1.46,1.85-2.11c1.52-1.44,3.19-2.68,5.14-3.46
			c0.96-0.38,1.95-0.69,2.98-0.91c1.65-0.35,3.3-0.23,4.93-0.15c1.08,0.05,2.17,0.45,3.22,0.85c1.05,0.4,2.03,0.9,2.97,1.49
			c0.38,0.24,0.76,0.48,1.13,0.74c1.53,1.09,3.9,3.87,4.82,5.52c0.72,1.3,1.36,2.63,1.83,4.03c0.26,0.77,0.57,1.54,0.65,2.37
			c0.04,0.37,0.16,0.73,0.23,1.1c0.06,0.33-0.12,0.7,0.23,1c0.1,0.09,0.02,0.38,0.02,0.58C61.58,61.01,61.58,61.84,61.58,62.68z"/>
		<path class="st0" d="M119.32,62.67c0,0.68-0.03,1.36,0.01,2.03c0.08,1.51-0.35,2.94-0.75,4.36c-0.17,0.6-0.27,1.24-0.52,1.82
			c-0.23,0.54-0.68,1-0.67,1.64c-0.73,0.82-1.12,1.86-1.73,2.77c-0.82,1.21-1.86,2.19-2.84,3.24c-0.72,0.77-1.53,1.43-2.44,1.93
			c-0.87,0.48-1.64,1.19-2.7,1.28c-1.08,0.72-2.33,0.76-3.55,0.98c-0.61,0.11-1.2,0.21-1.82,0.21c-1.92,0.01-3.73-0.48-5.54-1.08
			c-1.45-0.48-2.66-1.34-3.88-2.2c-0.88-0.62-1.6-1.39-2.34-2.13c-1.62-1.61-2.74-3.66-3.86-6.18c-0.6-1.34-0.8-2.77-1.38-4.1
			c0.14-0.75-0.27-1.43-0.25-2.17c0.02-1.4-0.02-2.79,0.02-4.19c0.01-0.53-0.12-1.05,0.2-1.6c0.23-0.39-0.16-1.01,0.27-1.44
			c0.14-1.74,0.84-3.31,1.55-4.86c0.95-2.08,1.53-2.99,2.96-4.64c0.38-0.44,0.68-0.96,1.11-1.33c1.44-1.22,2.89-2.45,4.64-3.23
			c1.08-0.48,2.21-0.83,3.36-1.13c1.71-0.44,3.45-0.25,5.17-0.19c1.21,0.05,2.42,0.48,3.54,0.95c1.02,0.42,2.02,0.94,2.92,1.62
			c1.15,0.86,2.34,1.7,3.25,2.81c1.07,1.29,2.89,3.5,3.59,5.93c0.82,1.15,0.85,2.59,1.39,3.86c0.26,0.61,0.25,1.35,0.28,2.03
			C119.35,60.67,119.32,61.67,119.32,62.67z"/>
	</g>
	<g>
		<path d="M183.18,112.53c0.19-1.06,0.47-2.11,0.56-3.18c1.33-15.94,2.44-31.9,4.02-47.82c1.12-11.28,2.72-22.53,5.66-33.52
			c0.47-1.77,1.36-3.5,2.38-5.04c1.94-2.95,5.05-3.88,8.04-2.03c2.57,1.6,5.14,3.57,6.92,5.96c3.9,5.21,7.46,10.69,10.86,16.24
			c2.58,4.21,4.7,8.71,7.02,13.07c0.28,0.52,0.57,1.02,1.02,1.84c0.5-0.77,0.86-1.29,1.19-1.82c6.16-10.03,12.22-20.12,18.53-30.06
			c1.76-2.77,4.05-5.28,6.45-7.55c3.51-3.33,6.49-2.83,9.09,1.26c3,4.72,4.31,10.07,5.46,15.45c4.2,19.6,5.76,39.52,7.19,59.45
			c0.52,7.23,1.21,14.44,1.58,21.68c0.18,3.53,0.02,7.1-0.36,10.61c-0.29,2.68-2.15,4.48-4.78,5.13
			c-8.42,2.06-16.95-3.22-17.67-11.72c-0.29-3.43-0.44-6.87-0.53-10.31c-0.29-12.13-0.37-24.27-0.82-36.4
			c-0.29-7.69-1.09-15.37-1.66-23.05c-0.22-0.06-0.43-0.11-0.65-0.17c-0.35,0.48-0.76,0.93-1.05,1.44
			c-3.56,6.17-7.08,12.36-10.69,18.5c-0.94,1.61-1.99,3.2-3.22,4.58c-5.23,5.86-12.36,5.49-16.9-0.93
			c-2.65-3.74-5.04-7.67-7.54-11.52c-1.58-2.43-3.12-4.89-4.69-7.32c-0.3-0.46-0.67-0.88-1.44-1.18c-0.09,1.29-0.24,2.59-0.24,3.88
			c0,13.76,0.08,27.53,0.03,41.29c-0.02,6.34-0.15,12.68-0.42,19.01c-0.23,5.48-3.87,8.89-9.38,8.93c-4.33,0.03-8.49-0.67-11.6-4.09
			c-0.92-1.01-1.59-2.24-2.37-3.36C183.18,117.36,183.18,114.95,183.18,112.53z"/>
		<path d="M537.21,97.42c-0.9,0.79-1.39,1.21-1.87,1.65c-4.71,4.25-9.24,8.72-14.17,12.7c-8.06,6.51-17.36,7.75-27.02,4.57
			c-7.06-2.33-10.78-7.9-11.93-15.12c-1.17-7.35,0.01-14.58,1.6-21.73c0.97-4.35,2.2-8.65,3.38-12.95c0.38-1.37,0.05-1.79-1.4-2.14
			c-2.56-0.62-5.21-1.32-7.47-2.6c-5.26-2.97-5.67-9.55-1.07-13.39c1.56-1.31,2.45-1.26,3.9,0.2c1.07,1.07,2.02,2.3,3.24,3.16
			c1.25,0.88,2.72,1.48,4.16,2.04c1.4,0.55,2.09-0.14,2.68-1.52c3.03-7.18,7.58-13.03,14.99-16.18c3.73-1.58,7.57-1.59,11.32-0.14
			c6.36,2.46,8.57,9.01,5.32,15.47c-1.52,3.02-3.9,5.18-6.78,6.86c-4.12,2.39-8.56,3.88-13.16,5.01c-0.66,0.16-1.51,0.86-1.67,1.47
			c-2.05,7.44-4.11,14.88-5.89,22.39c-0.84,3.55-0.69,7.2,0.79,10.67c1.73,4.06,4.63,5.22,8.63,3.42c4-1.79,7.28-4.61,10.13-7.81
			c4.86-5.46,9.48-11.12,14.15-16.74c2.23-2.68,4.71-5.02,7.94-6.46c4.67-2.09,8.71-1.33,11.82,2.7c2.24,2.9,4.13,6.1,5.89,9.32
			c2.3,4.22,4.9,8.19,8.35,11.55c0.86,0.83,1.83,1.6,2.88,2.17c1.98,1.08,3.74,0.43,4.12-1.79c0.4-2.28,0.51-4.68,0.29-6.98
			c-0.75-7.83-3.67-15.08-6.3-22.41c-1.57-4.37-3.1-8.83-1.68-13.59c0.25-0.86,0.57-1.73,1.03-2.5c2.27-3.84,6.03-4.5,9.48-1.65
			c3.19,2.64,5.12,6.2,6.14,10.06c1.95,7.34,3.54,14.77,5.24,22.18c1.48,6.44,2.34,12.94,1.92,19.58
			c-0.7,11.01-8.3,18.36-19.34,18.91c-9,0.45-16.13-2.72-21.46-10.04c-2.2-3.02-4.74-5.8-7.1-8.7
			C537.88,98.58,537.6,98.03,537.21,97.42z M504.82,52.14c3.18-0.94,6.04-2.29,8.26-4.69c0.85-0.92,1.22-2.04,0.27-3.09
			c-0.9-0.99-2.02-0.75-2.95-0.05C507.75,46.32,506.14,49.1,504.82,52.14z"/>
		<path d="M311.28,80.53c0.63,6.42,2.76,11.61,8.38,14.68c7.92,4.33,16.16,4.87,24.67,1.72c4.35-1.61,8.74-3.17,13.19-4.48
			c3.38-0.99,6.73-0.52,9.73,1.5c2.43,1.63,3.3,3.84,2,6.41c-1.03,2.05-2.39,4.16-4.12,5.62c-12.3,10.4-33.44,14.77-49.32,6.08
			c-10.02-5.48-15.45-14.11-17.14-25.22c-0.4-2.62-0.51-5.28-0.64-7.93c-0.05-1.02-0.34-1.45-1.4-1.66
			c-3.54-0.72-7.18-1.09-10.35-3.1c-4.12-2.62-5.81-8.11-3.61-12.17c0.45-0.83,1.08-1.63,1.79-2.25c2.21-1.9,5.16-1.44,6.39,1.17
			c1.56,3.3,4.55,3.91,7.59,4.47c0.39,0.07,1.17-0.71,1.41-1.26c4.21-9.63,11.1-16.74,20.38-21.56c6.76-3.51,13.93-5.52,21.62-5.09
			c11.98,0.67,20.83,6.63,27.35,16.41c2.23,3.34,3.76,6.97,4.66,10.92c2.28,10.01-3.48,16.76-11.54,19.6
			c-7.42,2.62-15.15,2.75-22.77,1.59c-8.89-1.36-17.66-3.42-26.49-5.18C312.6,80.7,312.13,80.65,311.28,80.53z M311.4,68.95
			c0.87,0.28,1.47,0.56,2.11,0.67c3.57,0.61,7.13,1.39,10.73,1.72c8.18,0.75,16.32,0.3,24.33-1.62c4.15-1,5.84-3.78,4.39-7.32
			c-2.23-5.47-6.21-8.97-12.13-10.04c-8.47-1.53-15.74,1.19-22.2,6.49C315.4,61.48,313.03,64.77,311.4,68.95z"/>
		<path d="M420.74,117.73c-24.53,0.24-43.27-21.9-40.93-45.85c1.19-12.18,6.72-21.86,15.75-29.78c0.99-0.86,2.15-1.57,3.34-2.15
			c2.83-1.38,5.32-1.1,7.06,0.65c1.63,1.64,2.01,4.5,0.78,7.11c-0.77,1.63-1.74,3.17-2.68,4.71c-2.15,3.5-4.72,6.79-6.44,10.49
			c-6.65,14.3-2.02,25.91,12.47,32.8c15.16,7.21,32.73-2.03,35.94-18.47c0.92-4.73,0.3-9.37-1.8-13.78
			c-0.59-1.24-1.19-1.6-2.65-1.15c-7.12,2.18-14.2,2.12-21.07-1c-6.14-2.79-8.88-7.71-8.09-13.71c1.07-8.06,7.45-13.02,12.14-13.38
			c4.69-0.36,8.96,0.95,12.56,3.8c3.44,2.73,6.55,5.89,9.68,8.99c0.9,0.89,1.61,1.32,2.8,0.77c4.05-1.87,8.11-3.73,12.18-5.57
			c1.37-0.62,2.73-1.33,4.17-1.71c3.09-0.81,5.61,1.2,5.58,4.39c-0.03,2.98-1.22,5.51-3.86,6.94c-2.96,1.6-6.11,2.88-9.19,4.25
			c-3.88,1.73-3.81,1.68-2.54,5.71c1.37,4.36,2.99,8.71,3.78,13.19c2.38,13.38-2.75,24.14-12.57,32.91
			C439.68,114.59,430.72,117.77,420.74,117.73z M433.06,51.55c0.1-0.28,0.2-0.56,0.31-0.83c-1.86-1.79-3.38-4.02-6.1-4.77
			c-1.41-0.39-2.71-0.33-3.26,1.31c-0.54,1.6,0.38,2.73,1.74,3.06C428.13,50.91,430.61,51.15,433.06,51.55z"/>
	</g>
</g>
</svg>
